<?xml version="1.0" encoding="iso-8859-1"?>
<!-- Uploaded to: SVG Repo, www.svgrepo.com, Generator: SVG Repo Mixer Tools -->
<svg fill="#868686" height="800px" width="800px" version="1.1" id="Layer_1" xmlns="http://www.w3.org/2000/svg" xmlns:xlink="http://www.w3.org/1999/xlink" 
	 viewBox="0 0 512 512" xml:space="preserve">
<g>
	<g>
		<circle cx="448" cy="320" r="12.8"/>
	</g>
</g>
<g>
	<g>
		<circle cx="396.8" cy="320" r="12.8"/>
	</g>
</g>
<g>
	<g>
		<circle cx="345.6" cy="320" r="12.8"/>
	</g>
</g>
<g>
	<g>
		<path d="M230.4,230.4h256c14.14,0,25.6-11.46,25.6-25.6V25.6C512,11.46,500.54,0,486.4,0h-256c-14.14,0-25.6,11.46-25.6,25.6v76.8
			H64c-14.14,0-25.6,11.46-25.6,25.6v51.2H25.6C11.46,179.2,0,190.66,0,204.8v102.4c0,14.14,11.46,25.6,25.6,25.6h12.8V384
			c0,14.14,11.46,25.6,25.6,25.6h140.8v76.8c0,14.14,11.46,25.6,25.6,25.6h256c14.14,0,25.6-11.46,25.6-25.6V307.2
			c0-14.14-11.46-25.6-25.6-25.6h-256c-14.14,0-25.6,11.46-25.6,25.6V384H64v-51.2h12.8c14.14,0,25.6-11.46,25.6-25.6V204.8
			c0-14.14-11.46-25.6-25.6-25.6H64V128h140.8v76.8C204.8,218.94,216.26,230.4,230.4,230.4z M230.4,25.6h115.2h51.2H448h38.4v25.6
			H448h-51.2h-51.2H230.4V25.6z M230.4,76.8h256v128h-256V76.8z M230.4,307.2h115.2h51.2H448h38.4v25.6H448h-51.2h-51.2H230.4V307.2
			z M230.4,358.4h256v128h-256V358.4z M76.8,204.8v102.4H25.6V204.8H76.8z"/>
	</g>
</g>
<g>
	<g>
		<circle cx="448" cy="38.4" r="12.8"/>
	</g>
</g>
<g>
	<g>
		<circle cx="396.8" cy="38.4" r="12.8"/>
	</g>
</g>
<g>
	<g>
		<circle cx="345.6" cy="38.4" r="12.8"/>
	</g>
</g>
</svg>