<?xml version="1.0" encoding="iso-8859-1"?>
<!-- Uploaded to: SVG Repo, www.svgrepo.com, Generator: SVG Repo Mixer Tools -->
<svg fill="#868686" height="800px" width="800px" version="1.1" id="Layer_1" xmlns="http://www.w3.org/2000/svg" xmlns:xlink="http://www.w3.org/1999/xlink" 
	 viewBox="0 0 512 512" xml:space="preserve">
<g>
	<g>
		<path d="M503.467,0H8.533C3.823,0,0,3.823,0,8.533v494.933C0,508.177,3.823,512,8.533,512h494.933c4.71,0,8.533-3.823,8.533-8.533
			V8.533C512,3.823,508.177,0,503.467,0z M162.133,494.933H17.067V384h145.067V494.933z M162.133,366.933H17.067V256h145.067
			V366.933z M162.133,238.933H17.067V128h145.067V238.933z M332.8,494.933H179.2V384h153.6V494.933z M332.8,366.933H179.2V256h153.6
			V366.933z M332.8,238.933H179.2V128h153.6V238.933z M494.933,494.933H349.867V384h145.067V494.933z M494.933,366.933H349.867V256
			h145.067V366.933z M494.933,238.933H349.867V128h145.067V238.933z M494.933,110.933H17.067V17.067h477.867V110.933z"/>
	</g>
</g>
</svg>